<svg xmlns="http://www.w3.org/2000/svg" width="48.73" height="48.73" viewBox="0 0 48.73 48.73"><title>Asset 8</title><g id="Layer_2" data-name="Layer 2"><g id="Layer_1-2" data-name="Layer 1"><circle cx="24.37" cy="24.37" r="22.87" fill="#eae9e8" stroke="#231f20" stroke-miterlimit="10" stroke-width="3"/><path d="M16.83,17.56q-.36-2.8-.74-5.61c-.08-.62.07-.79.68-.64a1.21,1.21,0,0,0,1.31-.44,8,8,0,0,1,8.18-2.43,8,8,0,0,1,6.07,5.88,8.38,8.38,0,0,1-6.2,10.51,8.14,8.14,0,0,1-6.63-1.26.65.65,0,0,0-.78-.06,3.54,3.54,0,0,1-.39.19c-.48.21-.68.1-.75-.42Z" fill="#010101"/><path d="M18.31,22.79c0-.09,0-.15,0-.21-.45-3.46-.91-6.92-1.36-10.37,0,0,.07-.06.08-.05.68.23,1.07-.09,1.53-.6A7.29,7.29,0,0,1,25.9,9.17a7.29,7.29,0,0,1,5.64,5.21,7.64,7.64,0,0,1-6.48,9.83,7.39,7.39,0,0,1-4-.66c.14-.28.29-.54.41-.82A1.25,1.25,0,0,0,21.15,21c-.24-.23-.65-.41-.72-.68s.36-.53.52-.82A1.66,1.66,0,0,0,20.28,17c-.34-.24-.38-.37-.12-.72.93-1.26.73-2.15-.6-3-.13-.08-.27-.15-.39,0s-.06.3.08.42.36.32.53.5c.59.61.61.83.16,1.54-.13.21-.28.4-.42.6a.54.54,0,0,0,.15.87c1.29.82,1.39,1.47.37,2.64-.31.34-.27.61.08.91a2.78,2.78,0,0,1,.27.21c1,.85,1,.86.33,2.14-.11.2-.2.21-.37.09a2.82,2.82,0,0,0-.29-.18C19.23,22.48,19.23,22.48,18.31,22.79Z" fill="#fff"/><path d="M26.25,15.61a2.59,2.59,0,0,1,.55-1.81c.4-.45.66-.44.83.12a6.12,6.12,0,0,0,1.8,2.74c.39.35.31.6-.21.77a2.51,2.51,0,0,1-1.91-.23c-.08.31-.13.59-.22.87a2.87,2.87,0,0,1-3.73,2.11c-1.64-.46-1.65-.45-1.4-2.13a2.88,2.88,0,0,1,3.52-2.58C25.73,15.5,26,15.56,26.25,15.61Z" fill="#030303"/><path d="M29.39,12.37l.2.15a3.57,3.57,0,0,1,.88,1.53c.05.21.07.4-.17.48s-.34-.07-.4-.28a2.94,2.94,0,0,0-.77-1.33.32.32,0,0,1-.07-.43A.29.29,0,0,1,29.39,12.37Z" fill="#0c0b0b"/><path d="M22.52,14.73a.53.53,0,0,1-.6.46.56.56,0,0,1-.55-.65A.54.54,0,0,1,22,14,.59.59,0,0,1,22.52,14.73Z" fill="#0c0b0b"/><path d="M22.12,12.4c-.07.32-.25.48-.55.44a.48.48,0,1,1,.12-.95C22,11.92,22.11,12.13,22.12,12.4Z" fill="#0b0b0a"/><path d="M27.2,14.13A5,5,0,0,0,29.08,17a2,2,0,0,1-1.67-.3c-.41-.27-.5-.23-.59.25a6.43,6.43,0,0,1-.33,1.36,2.4,2.4,0,0,1-3.18,1.39c-1.1-.34-1-.25-.89-1.34A2.45,2.45,0,0,1,25.57,16c.29.05.57.12.85.19s.47,0,.4-.4A1.84,1.84,0,0,1,27.2,14.13Z" fill="#fff"/><path d="M23.34,17.6a.5.5,0,0,1,.74.18.48.48,0,0,1-.15.71.49.49,0,0,1-.75-.14A.5.5,0,0,1,23.34,17.6Z" fill="#100f0f"/><path d="M5.94,36.33h0v0a.46.46,0,0,1,.51-.37h0c.14,0,2.7.12,3.91-.82A1.48,1.48,0,0,0,11,33.87a.44.44,0,0,1,.47-.4h0a.44.44,0,0,1,.48.4,1.49,1.49,0,0,0,.61,1.24,6.53,6.53,0,0,0,3.55.83,6,6,0,0,0,3.23-.81,1.5,1.5,0,0,0,.62-1.26.48.48,0,0,1,.95,0,1.49,1.49,0,0,0,.61,1.24,6.23,6.23,0,0,0,3.37.83,5.88,5.88,0,0,0,3.18-.81,1.51,1.51,0,0,0,.63-1.26.48.48,0,0,1,.94,0,1.5,1.5,0,0,0,.62,1.24,6.28,6.28,0,0,0,3.39.83,5.92,5.92,0,0,0,3.18-.81,1.51,1.51,0,0,0,.63-1.26.48.48,0,0,1,.94,0A1.48,1.48,0,0,0,39,35.11c1.24,1,3.89.83,3.92.82a.45.45,0,0,1,.5.37.43.43,0,0,1-.44.42c-.12,0-3.08.17-4.62-1a3.71,3.71,0,0,1-.45-.43,3.4,3.4,0,0,1-1.63,1.05,8,8,0,0,1-1.9.38.76.76,0,0,1-.16,0h-.87a2.69,2.69,0,0,1-.68,0,6.16,6.16,0,0,1-3.07-1,3,3,0,0,1-.44-.43,3.48,3.48,0,0,1-1.64,1.05,8.14,8.14,0,0,1-1.87.37.42.42,0,0,1-.16,0h-.9a2.77,2.77,0,0,1-.69,0,6.19,6.19,0,0,1-3-1,3,3,0,0,1-.44-.43,3.4,3.4,0,0,1-1.63,1.05,8.78,8.78,0,0,1-2.19.4h-.75a4.18,4.18,0,0,1-.52,0,8.84,8.84,0,0,1-2.25-.4,3.4,3.4,0,0,1-1.63-1.05,3.4,3.4,0,0,1-1.63,1.05,9.45,9.45,0,0,1-2.93.42H6.38a.79.79,0,0,1-.22-.06A.33.33,0,0,1,6,36.4s0,0,0,0Zm1.88,4c-.58.27.43.63,1.5.26a3.42,3.42,0,0,0,1.62-1.05,3.45,3.45,0,0,0,1.63,1.05,8.91,8.91,0,0,0,2.26.4,4.1,4.1,0,0,0,.52,0h.74a8.7,8.7,0,0,0,2.19-.4,3.41,3.41,0,0,0,1.63-1.06,2.62,2.62,0,0,0,.44.44,6.08,6.08,0,0,0,3,1,2.36,2.36,0,0,0,.69.06H25l.16,0A8,8,0,0,0,27,40.6a3.4,3.4,0,0,0,1.64-1.06,2.62,2.62,0,0,0,.44.44,6.27,6.27,0,0,0,3.07,1,2.69,2.69,0,0,0,.68.05h.88l.15,0a8.42,8.42,0,0,0,1.9-.38,3.45,3.45,0,0,0,1.64-1.06,2.62,2.62,0,0,0,.44.44,4.25,4.25,0,0,0,3.3.82.52.52,0,0,0,.48-.49c0-.21.14-.1-.12-.09a4.89,4.89,0,0,1-3-.82,1.5,1.5,0,0,1-.62-1.24.48.48,0,0,0-.94,0,1.51,1.51,0,0,1-.63,1.26,5.92,5.92,0,0,1-3.18.81,6.28,6.28,0,0,1-3.39-.83,1.5,1.5,0,0,1-.61-1.25.45.45,0,0,0-.48-.39.44.44,0,0,0-.47.39,1.5,1.5,0,0,1-.63,1.27,5.86,5.86,0,0,1-3.17.81A6.28,6.28,0,0,1,21,39.4a1.48,1.48,0,0,1-.62-1.25.44.44,0,0,0-.47-.39.45.45,0,0,0-.48.39,1.52,1.52,0,0,1-.62,1.27,6,6,0,0,1-3.23.81A6.54,6.54,0,0,1,12,39.4a1.5,1.5,0,0,1-.61-1.25.44.44,0,0,0-.47-.39h0a.44.44,0,0,0-.48.39,1.5,1.5,0,0,1-.61,1.25" fill="#010101"/><line x1="9.87" y1="41.35" x2="38.31" y2="6.58" fill="none" stroke="#231f20" stroke-miterlimit="10" stroke-width="2"/></g></g></svg>